Another Fine Release Brought to you from - IMAGiNE


********************************************************************************************************************
The Green Hornet 2011 TS XviD - IMAGiNE
********************************************************************************************************************

Ripper ...........: IMAGiNE IMDB Rating.......:6.8/10
Video Codec.......: XVID Release Date......:14/01/11
Audio Codec.......:MP3 Theatre Date......:14/01/11
Audio Bitrate.....:128 Runtime.......:1h 51mn
Subtitles.........:NIL Language..........:ENGLISH
Resolution...... 720 x 306 IMDb URL.......... http://www.imdb.com/title/tt0990407/


DETAILS:

Video
Format : MPEG-4 Visual
Format profile : Streaming Video@L1
Format settings, BVOP : Yes
Format settings, QPel : No
Format settings, GMC : No warppoints
Format settings, Matrix : Default
Muxing mode : Packed bitstream
Codec ID : XVID
Codec ID/Hint : XviD
Duration : 1h 51mn
Bit rate : 1 619 Kbps
Width : 720 pixels
Height : 306 pixels
Display aspect ratio : 2.35
Frame rate : 25.000 fps
Resolution : 24 bits
Colorimetry : 4:2:0
Scan type : Progressive
Bits/(Pixel*Frame) : 0.294
Stream size : 1.26 GiB (92%)
Writing library : XviD 1.1.2 (UTC 2006-11-01)

Audio
Format : MPEG Audio
Format version : Version 1
Format profile : Layer 3
Codec ID : 55
Codec ID/Hint : MP3
Duration : 1h 51mn
Bit rate mode : Constant
Bit rate : 128 Kbps
Channel(s) : 2 channels
Sampling rate : 44.1 KHz
Resolution : 16 bits
Stream size : 102 MiB (7%)
Alignment : Split accross interleaves
Interleave, duration : 40 ms (1.00 video frame)
Interleave, preload duration : 500 ms





SOURCES:

VIDEO: SERENiTY... Thanks
AUDIO: A good Friend... Thanks

NOTES:

IMAGiNE bringing you another release..........The Green Hornet 2011

What we did was use SERENiTY source and did our own encode from that. We just made a small script containing resize,white balance,rgb eq,sharpness,chroma,brightness,contrast ect.
Then we cleaned up the audio removing noise and hiss ect.Then synced it to our encode.

Enjoy


